<?xml version="1.0" encoding="utf-8"?>
<!-- Generator: Adobe Illustrator 27.5.0, SVG Export Plug-In . SVG Version: 6.00 Build 0)  -->
<svg version="1.1" id="Layer_1" xmlns="http://www.w3.org/2000/svg" xmlns:xlink="http://www.w3.org/1999/xlink" x="0px" y="0px"
	 viewBox="0 0 900 900" style="enable-background:new 0 0 900 900;" xml:space="preserve">
<g>
	<g>
		<g>
			<path style="fill:#968EAB;" d="M796.545,725.534h-690.44c-5.442,0-9.895-4.453-9.895-9.895l0,0c0-5.442,4.453-9.895,9.895-9.895
				h690.44c5.442,0,9.895,4.453,9.895,9.895l0,0C806.441,721.081,801.988,725.534,796.545,725.534z"/>
			<g>
				<g>
					<g>
						<path style="fill:#0E254A;" d="M642.782,313.918L642.782,313.918c-4.903-5.229-4.478-13.297,0.948-18.021l0.614-0.535
							c5.427-4.724,13.8-4.315,18.703,0.914l0,0c4.903,5.229,4.478,13.297-0.948,18.021l-0.614,0.535
							C656.059,319.556,647.685,319.146,642.782,313.918z"/>
						<path style="fill:#F66438;" d="M653.195,339.293l-12.896,11.227l-36.619-39.054l12.896-11.227
							c8.935-7.779,21.752-8.812,31.699-3.414c2.513,1.359,4.837,3.124,6.876,5.299c5.052,5.388,7.363,12.242,7.018,18.975
							C661.805,327.832,658.786,334.426,653.195,339.293z"/>
						<path style="fill:#FFAC3D;" d="M641.543,326.867l-12.896,11.227l-24.968-26.628l12.896-11.227
							c8.935-7.779,21.752-8.812,31.699-3.414c1.709,3.767,2.453,7.827,2.242,11.848C650.154,315.406,647.135,322,641.543,326.867z"
							/>
					</g>
					<path style="fill:#323966;" d="M640.966,350.37c-3.89,3.474-15.387-2.33-25.679-12.987
						c-10.292-10.657-15.494-22.116-11.598-25.601c3.069-2.754,10.902,0.301,19.141,6.969c2.169,1.772,4.382,3.786,6.528,6.012
						c2.51,2.602,4.722,5.249,6.566,7.819C641.654,340.537,643.906,347.738,640.966,350.37z"/>
					<path style="fill:#FFFFFF;" d="M635.923,332.582c-2.979,3.283-8.049,4.219-12.156,1.984c-4.691-2.553-6.352-8.307-3.696-12.837
						c0.708-1.208,1.656-2.217,2.758-2.978c2.169,1.772,4.382,3.786,6.528,6.012C631.867,327.365,634.079,330.012,635.923,332.582z"
						/>
				</g>
				<polyline style="fill:none;stroke:#0E254A;stroke-width:5.2291;stroke-miterlimit:10;" points="707.912,440.21 741.343,332.302 
					673.646,287.206 659.439,299.285 				"/>
				<g>
					<ellipse style="fill:#0E254A;" cx="672.756" cy="287.848" rx="8.324" ry="8.02"/>
					<path style="fill:#323966;" d="M676.918,287.848c0,2.215-1.863,4.01-4.162,4.01c-2.299,0-4.162-1.795-4.162-4.01
						s1.863-4.01,4.162-4.01C675.055,283.837,676.918,285.633,676.918,287.848z"/>
				</g>
				<path style="fill:#FFAC3D;" d="M741.565,453.88h-86.121l0,0c0-9.449,7.66-17.11,17.11-17.11h51.902
					C733.904,436.77,741.565,444.43,741.565,453.88L741.565,453.88z"/>
				<rect x="673.2" y="432.493" style="fill:#0E254A;" width="15.537" height="4.705"/>
				<g>
					<ellipse style="fill:#0E254A;" cx="740.677" cy="333.402" rx="11.653" ry="11.228"/>
					<ellipse style="fill:#323966;" cx="740.677" cy="333.402" rx="5.826" ry="5.614"/>
				</g>
			</g>
			<g>
				<g>
					<path style="fill:#5E1F3F;" d="M790.483,428.843h-78.99v-27.327h78.99c3.339,0,6.046,2.707,6.046,6.046v15.235
						C796.529,426.137,793.822,428.843,790.483,428.843z"/>
					<path style="fill:#5E1F3F;" d="M761.718,428.843h-78.99v-27.327h78.99c3.339,0,6.046,2.707,6.046,6.046v15.235
						C767.764,426.137,765.057,428.843,761.718,428.843z"/>
					<path style="fill:#E8EAEC;" d="M757.809,425.089h-75.081v-20.847h75.081c2.86,0,5.179,2.319,5.179,5.179v10.489
						C762.988,422.77,760.669,425.089,757.809,425.089z"/>
					<rect x="773.696" y="412.303" style="fill:#FFFFFF;" width="17.978" height="1.978"/>
					<rect x="773.696" y="416.54" style="fill:#FFFFFF;" width="17.978" height="1.978"/>
				</g>
				<g>
					<path style="fill:#5E1F3F;" d="M803.297,380.484h-78.99v-27.327h78.99c3.339,0,6.046,2.707,6.046,6.046v15.235
						C809.343,377.777,806.636,380.484,803.297,380.484z"/>
					<path style="fill:#5E1F3F;" d="M774.533,380.484h-78.99v-27.327h78.99c3.339,0,6.046,2.707,6.046,6.046v15.235
						C780.578,377.777,777.872,380.484,774.533,380.484z"/>
					<path style="fill:#E8EAEC;" d="M771.624,377.73h-76.081v-21.847h76.081c2.86,0,5.179,2.319,5.179,5.179v11.489
						C776.803,375.411,774.484,377.73,771.624,377.73z"/>
					<rect x="784.369" y="361.787" style="fill:#E8EAEC;" width="21.992" height="9.708"/>
					<rect x="786.511" y="363.944" style="fill:#0E254A;" width="17.978" height="1.978"/>
					<rect x="786.511" y="367.181" style="fill:#0E254A;" width="17.978" height="1.978"/>
				</g>
				<g>
					<path style="fill:#0E254A;" d="M796.236,454.732h-78.99v-27.327h78.99c3.339,0,6.046,2.707,6.046,6.046v15.235
						C802.281,452.025,799.575,454.732,796.236,454.732z"/>
					<path style="fill:#0E254A;" d="M767.471,454.732h-78.99v-27.327h78.99c3.339,0,6.046,2.707,6.046,6.046v15.235
						C773.517,452.025,770.81,454.732,767.471,454.732z"/>
					<path style="fill:#E8EAEC;" d="M763.562,450.977h-75.081V431.13h75.081c2.86,0,5.179,2.319,5.179,5.179v9.489
						C768.741,448.659,766.422,450.977,763.562,450.977z"/>
					<rect x="777.307" y="436.034" style="fill:#E8EAEC;" width="21.992" height="9.708"/>
					<rect x="779.449" y="438.192" style="fill:#0E254A;" width="17.978" height="1.978"/>
					<rect x="779.449" y="441.428" style="fill:#0E254A;" width="17.978" height="1.977"/>
				</g>
				<g>
					<path style="fill:#D04234;" d="M701.182,380.287v21.251h90.771c5.865,0,10.625-4.76,10.625-10.625
						c0-2.927-1.19-5.586-3.109-7.517c-1.931-1.919-4.59-3.109-7.517-3.109H701.182z"/>
					<path style="fill:#FA7C50;" d="M690.635,380.287v21.251h76.388c5.865,0,10.625-4.76,10.625-10.625
						c0-2.927-1.19-5.586-3.109-7.517c-1.931-1.919-4.59-3.109-7.517-3.109H690.635z"/>
					<path style="fill:#E8EAEC;" d="M690.635,383.93v13.624h73.523c3.765,0,6.812-3.048,6.812-6.812
						c0-1.882-0.765-3.582-1.992-4.821c-1.239-1.227-2.938-1.992-4.82-1.992H690.635z"/>
				</g>
				<g>
					
						<line style="fill:none;stroke:#968EAB;stroke-width:1.4382;stroke-miterlimit:10;" x1="695.534" y1="359.089" x2="774.167" y2="359.089"/>
					
						<line style="fill:none;stroke:#968EAB;stroke-width:1.4382;stroke-miterlimit:10;" x1="695.534" y1="363.643" x2="774.167" y2="363.643"/>
					
						<line style="fill:none;stroke:#968EAB;stroke-width:1.4382;stroke-miterlimit:10;" x1="695.534" y1="368.197" x2="774.167" y2="368.197"/>
					
						<line style="fill:none;stroke:#968EAB;stroke-width:1.4382;stroke-miterlimit:10;" x1="695.534" y1="372.752" x2="774.167" y2="372.752"/>
				</g>
				<g>
					
						<line style="fill:none;stroke:#968EAB;stroke-width:1.4382;stroke-miterlimit:10;" x1="682.668" y1="408.228" x2="761.771" y2="408.228"/>
					
						<line style="fill:none;stroke:#968EAB;stroke-width:1.4382;stroke-miterlimit:10;" x1="682.668" y1="412.783" x2="761.771" y2="412.783"/>
					
						<line style="fill:none;stroke:#968EAB;stroke-width:1.4382;stroke-miterlimit:10;" x1="682.668" y1="417.337" x2="761.771" y2="417.337"/>
					
						<line style="fill:none;stroke:#968EAB;stroke-width:1.4382;stroke-miterlimit:10;" x1="682.668" y1="421.892" x2="761.771" y2="421.892"/>
				</g>
				<g>
					
						<line style="fill:none;stroke:#968EAB;stroke-width:1.4382;stroke-miterlimit:10;" x1="688.66" y1="434.357" x2="767.764" y2="434.357"/>
					
						<line style="fill:none;stroke:#968EAB;stroke-width:1.4382;stroke-miterlimit:10;" x1="688.66" y1="438.911" x2="767.764" y2="438.911"/>
					
						<line style="fill:none;stroke:#968EAB;stroke-width:1.4382;stroke-miterlimit:10;" x1="688.66" y1="442.465" x2="767.764" y2="442.465"/>
					
						<line style="fill:none;stroke:#968EAB;stroke-width:1.4382;stroke-miterlimit:10;" x1="688.66" y1="447.02" x2="767.764" y2="447.02"/>
				</g>
			</g>
			<rect x="243.524" y="476.504" style="fill:#122F51;" width="23.012" height="249.295"/>
			<g>
				<path style="fill:#2166B5;" d="M483.231,548.895l-137.352,10.307l-38.113-193.444l92.257-0.324
					c25.847-0.091,48.21,17.972,53.558,43.26L483.231,548.895z"/>
				<path style="fill:#347DD0;" d="M317.946,550.153l-22.846-169.272c-1.018-7.541,4.319-14.544,11.861-15.562l0,0
					c7.541-1.018,14.544,4.319,15.562,11.861l22.847,169.272c1.018,7.541-4.319,14.544-11.861,15.562l0,0
					C325.966,563.032,318.964,557.694,317.946,550.153z"/>
				<g>
					<g>
						<rect x="396.189" y="573.341" style="fill:#4E567A;" width="16.094" height="94.924"/>
						<path style="fill:#0E254A;" d="M412.283,578.866v21.452l-16.094-6.228v-14.523
							C400.216,579.377,407.968,579.055,412.283,578.866z"/>
					</g>
					<path style="fill:#283154;" d="M441.522,581.016H369.61c-3.955,0-7.191-3.236-7.191-7.191l0,0c0-3.955,3.236-7.191,7.191-7.191
						h71.912c3.955,0,7.191,3.236,7.191,7.191l0,0C448.713,577.78,445.477,581.016,441.522,581.016z"/>
					<path style="fill:#2166B5;" d="M476.717,572.387h-82.654c-9.889,0-17.981-8.091-17.981-17.981l0,0
						c0-9.889,8.091-17.981,17.981-17.981h82.654c9.889,0,17.981,8.091,17.981,17.981l0,0
						C494.698,564.295,486.607,572.387,476.717,572.387z"/>
					<path style="fill:#347DD0;" d="M404.086,572.866h-66.114c-9.889,0-17.981-8.091-17.981-17.981v0
						c0-9.889,8.091-17.981,17.981-17.981h66.114c9.89,0,17.981,8.091,17.981,17.981v0
						C422.067,564.775,413.975,572.866,404.086,572.866z"/>
					<g>
						<g>
							<path style="fill:#0E254A;" d="M472.444,699.911h-10.068c0-12.028-9.785-21.813-21.813-21.813h-73.35
								c-12.028,0-21.814,9.785-21.814,21.813h-10.068c0-17.579,14.302-31.881,31.881-31.881h73.35
								C458.143,668.03,472.444,682.332,472.444,699.911z"/>
						</g>
						<rect x="392.382" y="652.928" style="fill:#0E254A;" width="23.491" height="15.341"/>
					</g>
					<g>
						
							<ellipse transform="matrix(0.2298 -0.9732 0.9732 0.2298 -428.7919 877.4908)" style="fill:#0E254A;" cx="339.982" cy="709.646" rx="8.363" ry="8.363"/>
						<path style="fill:#323966;" d="M352.042,708.908h-22.887v-2.541c0-6.078,4.927-11.005,11.005-11.005h0.878
							c6.078,0,11.005,4.927,11.005,11.005V708.908z"/>
						
							<ellipse transform="matrix(0.2298 -0.9732 0.9732 0.2298 -330.2765 1001.9703)" style="fill:#0E254A;" cx="467.883" cy="709.646" rx="8.363" ry="8.363"/>
						<path style="fill:#323966;" d="M479.943,708.908h-22.887v-2.541c0-6.078,4.927-11.005,11.005-11.005h0.878
							c6.078,0,11.005,4.927,11.005,11.005V708.908z"/>
					</g>
					<rect x="397.939" y="671.146" style="fill:#0E254A;" width="13.326" height="30.203"/>
					<g>
						
							<ellipse transform="matrix(0.2298 -0.9732 0.9732 0.2298 -378.8023 940.6554)" style="fill:#0E254A;" cx="404.883" cy="709.646" rx="8.363" ry="8.363"/>
						<path style="fill:#323966;" d="M416.943,708.908h-22.887v-2.541c0-6.078,4.927-11.005,11.005-11.005h0.878
							c6.078,0,11.005,4.927,11.005,11.005V708.908z"/>
					</g>
				</g>
			</g>
			<g>
				<g>
					<path style="fill:#968EAB;" d="M504.047,699.982l59.86-2.25c3.57-0.134,6.354-3.137,6.22-6.706l0,0
						c-0.103-2.749-1.934-5.132-4.564-5.94l-30.005-9.218l-32.342,2.006L504.047,699.982z"/>
					<path style="fill:#0E254A;" d="M565.168,699.349l-60.579,2.727l-0.195-4.341l64.921-2.922l0,0
						C569.422,697.21,567.566,699.241,565.168,699.349z"/>
				</g>
				<g>
					
						<line style="fill:none;stroke:#0E254A;stroke-width:1.4382;stroke-linecap:round;stroke-miterlimit:10;" x1="535.22" y1="684.651" x2="541.909" y2="676.824"/>
					
						<line style="fill:none;stroke:#0E254A;stroke-width:1.4382;stroke-linecap:round;stroke-miterlimit:10;" x1="540.466" y1="686.591" x2="547.156" y2="678.764"/>
					
						<line style="fill:none;stroke:#0E254A;stroke-width:1.4382;stroke-linecap:round;stroke-miterlimit:10;" x1="545.528" y1="689.276" x2="553.055" y2="680.403"/>
				</g>
				<g>
					<g>
						<path style="fill:#0E254A;" d="M500.85,678.757c3.476-58.429,2.538-112.448-2.014-123.388
							c-4.668-6.793-32.701-23.504-60.307-35.89l15.514-34.608c19.376,8.684,65.731,31.089,77.657,51.545
							c5.035,8.634,9.863,25.493,7.505,85.072c-1.236,31.205-2.759,55.651-2.759,55.651L500.85,678.757z"/>
					</g>
				</g>
				<path style="fill:#0E254A;" d="M457.501,507.958c0,6.544-2.33,12.541-6.198,17.215c-4.948,5.997-12.455,9.823-20.855,9.823
					h-45.463c-1.352,0-2.675-0.1-3.97-0.302c-3.337-0.475-6.472-1.582-9.291-3.179c-0.503-0.273-0.992-0.575-1.467-0.892
					c-7.407-4.818-12.311-13.174-12.311-22.666l0.822-15.524l97.943,0.25L457.501,507.958z"/>
				<g>
					<path style="fill:#968EAB;" d="M429.265,689.678l56.015,21.227c3.34,1.266,7.074-0.416,8.34-3.756l0,0
						c0.975-2.572,0.216-5.48-1.892-7.248l-24.051-20.17l-30.573-10.74L429.265,689.678z"/>
					<path style="fill:#0E254A;" d="M485.813,712.885l-56.864-21.068l1.51-4.075l60.939,22.577l0,0
						C490.564,712.571,488.064,713.719,485.813,712.885z"/>
				</g>
				<g>
					<path style="fill:#122F51;" d="M475.407,619.509c-0.791,30.936-3.524,59.226-3.639,60.406l-20.078-1.957l-17.662-1.711
						c5.12-52.74,4.89-105.797-0.446-117.116c-6.185-5.825-30.217-16.439-52.568-24.436c-3.15-1.122-6.271-2.186-9.291-3.179
						c-0.532-0.187-1.064-0.36-1.597-0.532l0.13-0.36c0,0,18.53-32.547,57.565-21.348c8.227,2.36,14.981,10.173,23.481,15.897
						c4.401,2.949,8.155,5.983,10.888,8.989C469.985,542.735,476.975,559.001,475.407,619.509z"/>
				</g>
				<g>
					
						<line style="fill:none;stroke:#0E254A;stroke-width:1.4382;stroke-linecap:round;stroke-miterlimit:10;" x1="462.017" y1="685.768" x2="471.366" y2="681.453"/>
					
						<line style="fill:none;stroke:#0E254A;stroke-width:1.4382;stroke-linecap:round;stroke-miterlimit:10;" x1="465.972" y1="689.723" x2="475.321" y2="685.409"/>
					
						<line style="fill:none;stroke:#0E254A;stroke-width:1.4382;stroke-linecap:round;stroke-miterlimit:10;" x1="469.448" y1="694.278" x2="479.995" y2="689.364"/>
				</g>
				<path style="fill:#0E254A;" d="M451.691,677.958l-17.662-1.711c5.12-52.74,4.89-105.797-0.446-117.116
					c-6.185-5.825-30.217-16.439-52.568-24.436c-3.337-0.475-6.472-1.582-9.291-3.179c-0.532-0.187-1.064-0.36-1.597-0.532
					l0.13-0.36c-7.407-4.818-12.311-13.174-12.311-22.666l0.834-14.426l15.619,2.143c-0.374,1.122-2.488,12.139,1.366,18.755
					c1.079,1.884,2.646,3.409,4.875,4.257c6.113,2.33,29.369,8.025,47.879,16.309c11.966,5.365,21.962,11.823,24.033,19.172
					C457.415,571.428,452.482,663.849,451.691,677.958z"/>
				<g>
					<g>
						<path style="fill:#AFAAC4;" d="M657.978,452.653H563.82c-6.16,0-10.23-6.403-7.616-11.98l32.84-70.058
							c2.863-6.108,9.001-10.01,15.747-10.01h86.687c4.491,0,7.459,4.669,5.553,8.735L657.978,452.653z"/>
						<g>
							<g>
								<path style="fill:#AFAAC4;" d="M564.169,452.893H497.03c-2.711,0-4.93-2.219-4.93-4.93l0,0c0-2.711,2.219-4.93,4.93-4.93
									h67.139c2.711,0,4.93,2.219,4.93,4.93l0,0C569.099,450.674,566.88,452.893,564.169,452.893z"/>
							</g>
							<g>
								<rect x="530.454" y="446.301" style="fill:#0E254A;" width="9.588" height="2.876"/>
								<rect x="520.626" y="446.301" style="fill:#0E254A;" width="6.951" height="2.876"/>
							</g>
						</g>
						<path style="fill:#827C91;" d="M656.56,452.653h-94.379c-3.388,0-5.627-3.522-4.189-6.59l35.366-75.448
							c2.863-6.108,9.001-10.01,15.747-10.01h86.687c4.491,0,7.459,4.669,5.553,8.735l-36.62,78.122
							C663.241,450.63,660.058,452.653,656.56,452.653z"/>
					</g>
					<path style="fill:#FFFFFF;" d="M635.941,412.006c-2.237,5.235-6.419,8.466-9.341,7.217c-2.922-1.249-3.477-6.504-1.239-11.739
						c2.237-5.235,6.419-8.466,9.341-7.217C637.624,401.516,638.178,406.772,635.941,412.006z"/>
				</g>
				<g>
					<g>
						<g>
							<path style="fill:#F7AC92;" d="M428.88,326.545l-7.313,0.563c-6.711,0.516-14.031-16.054-14.547-22.765l-2.645-34.382
								c-0.516-6.711,4.552-12.624,11.263-13.14l7.313-0.562c6.711-0.516,12.624,4.552,13.14,11.263l2.645,34.382
								C439.252,308.614,435.591,326.029,428.88,326.545z"/>
							<path style="fill:#0C1640;" d="M482.986,220.913c0.005,0.783-0.005,1.566-0.032,2.349c-0.151,3.772-0.686,7.466-1.589,11.003
								c-3.846,15.141-14.244,27.688-28.036,34.395c-6.848,3.337-14.537,5.225-22.669,5.279
								c-13.165,0.087-24.089,6.054-33.361-1.873c-2.989-2.552-5.692-5.411-8.03-8.559c-0.919-1.24-1.79-2.497-2.598-3.802
								c-4.926-7.956-8.971-28.06-9.038-38.094c-0.188-28.296,21.963-51.53,49.931-52.978c0.799-0.037,1.597-0.058,2.396-0.064
								c17.735-0.118,33.466,8.534,43.109,21.907c0.016,0.016,0.016,0.016,0.016,0.016c2.822,3.928,5.12,8.275,6.797,12.913
								C481.852,208.874,482.945,214.778,482.986,220.913z"/>
							<g>
								<path style="fill:#FFC9C0;" d="M414.662,236.352c0.025,1.091-0.145,2.153-0.512,3.142c-0.411,1.185-1.081,2.463-1.956,3.387
									c-1.586,1.659-3.781,2.906-6.259,2.964l-5.325,0.129l-4.085,0.107L396.2,233.96l0.015-0.001l-0.069-2.241l-0.045-1.741
									l-0.034-1.593l-0.017-0.412l0.015-0.001l9.395-0.235c2.374-0.064,4.554,0.803,6.202,2.257
									c0.999,0.884,1.795,2.005,2.319,3.25C414.409,234.214,414.636,235.246,414.662,236.352z"/>
								<path style="fill:#FFCCB4;" d="M478.682,226.271l0.503,19.6l0.078,2.934c0.06,1.931-0.043,3.86-0.254,5.724
									c-2.023,17.503-15.313,31.839-32.7,35.364c-0.522,0.128-1.062,0.214-1.589,0.284c-1.866,0.335-3.759,0.496-5.706,0.557
									c-1.887,0.056-3.727-0.039-5.56-0.238c-3.575-0.375-7.024-1.218-10.267-2.461c0,0-0.015,0.001-0.03-0.013
									c-14.128-5.401-24.576-18.28-26.269-33.769c-0.051-0.469-0.101-0.923-0.122-1.394c-0.071-0.541-0.085-1.102-0.098-1.662
									l-0.023-0.294l-0.043-1.327l-0.076-3.496l-0.332-12.002l0.006-0.119l-0.001-0.015l-0.053-2.227l-0.045-1.741l-0.034-1.593
									l-0.002-0.413c-0.051-2.775,0.302-5.491,0.913-8.109c0.405-1.834,0.947-3.634,1.567-5.367
									c0.081-0.287,0.166-0.53,0.264-0.789c0.511-1.428,1.125-2.85,1.805-4.203c-0.001-0.014,0.012-0.031,0.012-0.031
									c2.573-5.163,6.225-9.744,10.672-13.41c0.889-0.733,1.81-1.439,2.749-2.102c6.551-4.553,14.435-7.331,22.959-7.544
									c11.4-0.286,21.973,4.029,29.667,11.268c4.124,3.865,6.997,8.549,9.233,13.801c0.864,2.002,1.482,4.082,1.897,6.223
									C478.354,220.459,478.618,223.321,478.682,226.271z"/>
								<path style="fill:#FFC9C0;" d="M400.296,233.807l0.315,12.167l0.203,8.215l-3.23,0.086
									c-0.236,0.003-0.472,0.007-0.695-0.021c-5.412-0.233-9.828-4.814-9.977-10.211c-0.082-2.801,1.032-5.222,2.865-7.136
									c1.642-1.707,3.899-2.724,6.423-2.947l0.015-0.001c0.292-0.052,0.541-0.071,0.837-0.065L400.296,233.807z"/>
							</g>
							<path style="fill:#F7AC92;" d="M437.873,290.674c0,0-7.307,1.055-14.684-2.638c0,0-0.015,0.001-0.03-0.013
								c-14.128-5.401-24.576-18.28-26.269-33.769c-5.412-0.233-9.828-4.814-9.977-10.211c-0.082-2.801,1.032-5.222,2.865-7.136
								c1.642-1.707,3.899-2.724,6.423-2.947l-0.001-0.015l-0.053-2.227l-0.045-1.741l-0.034-1.593l-0.017-0.412l0.015-0.001
								c-0.051-2.775,0.302-5.491,0.913-8.109c5.314-3.527,10.925-4.549,14.676,2.151c0,0-0.082,3.169,0.008,7.979
								c0.056,3.601,0.195,8.112,0.533,12.889c0.667,9.82,2.098,20.747,5.137,27.208C423.8,283.88,437.873,290.674,437.873,290.674z
								"/>
							<g>
								<path style="fill:#0C1640;" d="M475.821,227.91l-16.008,1.231c-0.445,0.034-0.838-0.302-0.872-0.748l-0.233-3.032
									c-0.034-0.445,0.302-0.838,0.748-0.872l16.008-1.231c0.445-0.034,0.838,0.302,0.872,0.748l0.233,3.032
									C476.603,227.483,476.267,227.875,475.821,227.91z"/>
								<path style="fill:#0C1640;" d="M444.238,230.339l-16.008,1.231c-0.445,0.034-0.838-0.302-0.872-0.747l-0.233-3.032
									c-0.034-0.446,0.302-0.838,0.748-0.872l16.008-1.231c0.445-0.034,0.838,0.302,0.872,0.748l0.232,3.032
									C445.02,229.912,444.684,230.304,444.238,230.339z"/>
								<path style="fill:#F7AC92;" d="M460.818,251.704c0.011,0.062-0.252,0.012-0.252,0.012c0.099,2.091-1.581,3.886-6.067,4.102
									l-1.791-16.403C457.949,245.107,460.228,248.319,460.818,251.704z"/>
							</g>
						</g>
						<path style="fill:#0C1640;" d="M468.086,202.541c0,0-19.681,14.336-43.231,17.924c-15.33,2.336-22.943,27.337-22.798,25.871
							c0.145-1.466-7.929-14.604-7.784-16.07c0.145-1.466-3.663-52.675,39.295-47.924c42.958,4.751,46.062,33.188,46.062,33.188
							L468.086,202.541z"/>
						<path style="fill:#0C1640;" d="M453.268,174.216l38.451,19.683c0,0-10.331,9.17-20.283,5.685
							C447.284,191.128,453.268,174.216,453.268,174.216z"/>
						<path style="fill:#FFFFFF;" d="M466.501,260.865l-20.841,1.143c0,0,3.21,9.941,11.712,8.81
							C465.404,269.749,466.501,260.865,466.501,260.865z"/>
						<path style="fill:#DF3A37;" d="M362.619,323.424c-0.432,6.457-0.936,11.989-1.436,17.18c-0.322,3.403-0.645,6.658-0.938,9.916
							c-0.838,9.347-1.43,18.764-1.16,32.027l1.239,110.136c0.043,0.019,103.266-0.57,103.266-0.57s0.23-3.664,0.605-9.845
							c1.869-31.113,6.332-125.094,5.125-140.108c-0.187-2.298,0.268-7.233-0.302-9.407c-0.759-2.947-1.549-4.092-2.869-6.754
							c-3.803-7.794-9.627-14.309-15.533-18.802c-1.556-1.175-3.113-2.203-4.653-3.096c-0.7-0.41-1.418-0.777-2.109-1.127
							c-0.07-0.037,0.005-6.599,0.005-6.599l-8.759,0.612l-10.475,24.335l-13.269-23.644l-4.589-1.022l-6.477-1.079l-0.643,3.504
							c-0.252,0.005-0.901,0.132-1.873,0.377l-0.015-0.001c-5.977,1.451-23.784,7.089-31.51,16.035
							C364.157,317.907,362.814,320.557,362.619,323.424z"/>
						<g>
							<path style="fill:#F7AC92;" d="M552.474,151.266c-0.234,0.117-16.883,0.987-17.201,4.25
								c-0.53,5.433-0.319,11.681,0.598,17.271l1.935,13.469c0,0,12.555,2.604,13.319,2.554c10.626-0.694,7.478-25.662,7.478-25.662
								S557.7,148.642,552.474,151.266z"/>
							<path style="fill:#F7AC92;" d="M542.74,162.133l-3.572-24.733c-0.261-1.806-1.923-3.071-3.693-2.811l0,0
								c-1.77,0.26-3.005,1.951-2.744,3.757l3.572,24.732c0.261,1.806,1.922,3.071,3.693,2.811l0,0
								C541.766,165.63,543,163.939,542.74,162.133z"/>
							<path style="fill:#F7AC92;" d="M549.589,155.739l-2.868-19.859c-0.261-1.806-1.923-3.071-3.693-2.811l0,0
								c-1.77,0.26-3.005,1.951-2.744,3.757l2.868,19.859c0.261,1.806,1.923,3.071,3.693,2.811l0,0
								C548.615,159.236,549.85,157.545,549.589,155.739z"/>
							<path style="fill:#F7AC92;" d="M558.56,164.179l-3.394-23.505c-0.261-1.806-1.922-3.071-3.693-2.811v0
								c-1.77,0.26-3.005,1.951-2.744,3.757l3.394,23.505c0.261,1.806,1.922,3.071,3.693,2.811l0,0
								C557.586,167.676,558.821,165.985,558.56,164.179z"/>
							<path style="fill:#F7AC92;" d="M543.193,178.092l-11.241-22.24c-0.821-1.624-2.793-2.272-4.383-1.44l0,0
								c-1.596,0.835-2.222,2.835-1.398,4.465l11.24,22.24c0.821,1.624,2.793,2.272,4.383,1.44l0,0
								C543.384,181.726,544.013,179.716,543.193,178.092z"/>
							<g>
								<path style="fill:#DF3A37;" d="M442.312,313.174l16.035,26.58l1.004,1.669c0.551-0.331,4.142-2.506,9.579-6.128
									c16.726-11.163,50.941-35.962,67.678-62.478c8.728-13.822,14.137-30.46,17.498-45.554c0.018-0.028,0.021-0.057,0.023-0.087
									c2.463-11.111,3.822-21.385,4.583-29.068c0.776-7.829,0.916-12.982,0.98-13.627l-2.86-0.12l-19.408-0.769l-2.802-0.115
									c-0.015,0.147-0.649,4.911-2.115,12.227c-2.999,15.027-9.493,40.811-21.277,59.482
									c-7.236,11.468-23.359,25.06-41.848,39.232c-7.356,5.653-14.174,10.366-19.119,13.651
									C445.43,311.291,442.375,313.136,442.312,313.174z"/>
							</g>
						</g>
						<g>
							<path style="fill:#F7AC92;" d="M293.349,197.865c0.264,0.062,17.324-2.955,18.403,0.208
								c1.796,5.267,3.03,11.515,3.397,17.273l0.704,11.027c0,0-11.243,5.678-12.028,5.807
								c-10.92,1.788-13.532-24.012-13.532-24.012S287.448,196.479,293.349,197.865z"/>
							<path style="fill:#F7AC92;" d="M305.907,208.574l-2.481-29.761c-0.054-0.645,0.43-1.217,1.075-1.271l4.391-0.367
								c0.645-0.054,1.217,0.43,1.271,1.075l2.481,29.76c0.054,0.645-0.43,1.217-1.075,1.271l-4.391,0.367
								C306.532,209.703,305.961,209.219,305.907,208.574z"/>
							<path style="fill:#F7AC92;" d="M299.176,204.023l-5.305-24.274c-0.138-0.633,0.266-1.263,0.899-1.401l4.305-0.94
								c0.632-0.138,1.263,0.266,1.401,0.899l5.305,24.274c0.138,0.632-0.266,1.263-0.899,1.401l-4.305,0.94
								C299.945,205.06,299.314,204.655,299.176,204.023z"/>
							<path style="fill:#F7AC92;" d="M292.262,213.233l-6.589-27.832c-0.149-0.63,0.244-1.267,0.874-1.416l4.288-1.014
								c0.63-0.149,1.267,0.244,1.416,0.874l6.588,27.831c0.149,0.63-0.244,1.267-0.874,1.417l-4.288,1.015
								C293.049,214.257,292.411,213.863,292.262,213.233z"/>
							<path style="fill:#F7AC92;" d="M308.425,224.452l7.306-28.954c0.158-0.628,0.802-1.012,1.429-0.854l4.272,1.077
								c0.63,0.159,1.013,0.799,0.854,1.429l-7.307,28.958c-0.158,0.628-0.802,1.012-1.429,0.853l-4.272-1.08
								C308.65,225.723,308.266,225.079,308.425,224.452z"/>
						</g>
						<g>
							<path style="fill:#DF3A37;" d="M280.333,278.156c-0.426,12.513,0.782,25.72,5.125,37.921
								c9.252,26.011,33.451,33.562,51.777,35.378c3.489,0.346,6.778,0.479,9.707,0.504c4.468,0.028,8.844-0.205,12.952-0.567
								c3.257-0.3,6.344-0.675,9.185-1.104c10.187-1.508,17.315-3.51,17.788-3.656l-9.275-32.647
								c-0.152,0.044-4.908,1.275-11.695,2.379c-15.841,2.532-42.783,4.289-48.457-11.657c-7.525-21.177-4.827-49.144-2.405-64.626
								c1.105-6.968,2.151-11.395,2.18-11.539l-3.878-0.903l-19.579-4.561l-2.359-0.545c-0.152,0.637-1.869,5.263-3.916,12.478
								C284.528,245.393,280.922,261.159,280.333,278.156z"/>
						</g>
						<g>
							<g>
								<polygon style="fill:#0C1640;" points="358.489,482.536 358.412,488.539 358.382,492.838 417.084,492.592 432.92,492.799 
									464.161,492.818 464.161,483.893 433.027,483.498 417.192,483.29 359.687,482.552 								"/>
							</g>
							
								<rect x="417.141" y="483.233" transform="matrix(0.9999 0.0117 -0.0117 0.9999 5.7418 -4.9423)" style="fill:#68334F;" width="15.838" height="9.576"/>
						</g>
						<polygon style="fill:#FFFFFF;" points="411.977,296.587 408.028,310.591 397.372,300.466 399.181,295.279 						"/>
						<polygon style="fill:#FFFFFF;" points="435.1,296.987 435.589,311.348 445.992,304.729 443.859,296.375 						"/>
						<polygon style="fill:#FFFFFF;" points="420.761,482.965 424.274,322.194 411.977,296.587 410.071,299.936 422.161,322.355 
							417.192,483.29 						"/>
						<path style="fill:none;stroke:#0C1640;stroke-width:2.21;stroke-linecap:round;stroke-miterlimit:10;" d="M442.579,238.322
							c0,0-2.417-2.949-6.082-2.409c-3.665,0.54-4.602,3.156-4.602,3.156"/>
						<path style="fill:none;stroke:#0C1640;stroke-width:2.21;stroke-linecap:round;stroke-miterlimit:10;" d="M472.887,236.267
							c0,0-2.417-2.949-6.082-2.409c-3.666,0.54-4.602,3.156-4.602,3.156"/>
						<g>
							<polygon style="fill:#FFFFFF;" points="316.291,240.304 287.21,234.955 291.303,221.049 318.356,226.937 							"/>
							<path style="fill:#0C1640;" d="M291.299,231.042c-0.114,1.147,0.669,2.164,1.749,2.271c1.08,0.107,2.047-0.736,2.161-1.883
								c0.114-1.147-0.669-2.164-1.749-2.271C292.38,229.051,291.413,229.895,291.299,231.042z"/>
						</g>
						<g>
							<polygon style="fill:#FFFFFF;" points="531.102,195.58 532.51,195.704 558.715,198.109 560.519,198.273 560.549,198.276 
								560.357,183.777 557.177,183.596 541.546,182.668 538.748,182.51 537.247,182.42 532.729,182.15 							"/>
							<path style="fill:#0C1640;" d="M557.67,193.403c-0.2,1.135-1.228,1.903-2.297,1.715c-1.069-0.188-1.773-1.261-1.573-2.396
								c0.2-1.135,1.228-1.903,2.297-1.715C557.166,191.195,557.87,192.268,557.67,193.403z"/>
						</g>
					</g>
					<g>
						<path style="opacity:0.46;fill:#5B173A;" d="M280.333,278.156c-0.426,12.513,0.782,25.72,5.125,37.921
							c9.252,26.011,33.451,33.562,51.777,35.378c3.489,0.346,6.778,0.479,9.707,0.504c4.468,0.028,8.844-0.205,12.952-0.567
							c-0.838,9.347-1.43,18.764-1.16,32.027l0.953,101.688l10.283,0.368l-0.89-135.187l-0.064-9.511c0,0-3.166,0.426-8.182,0.699
							c-12.34,0.672-35.854,0.4-50.671-9.492C293.58,320.924,282.689,296.659,280.333,278.156z"/>
						<path style="fill:#2E3768;" d="M279.877,269.613c0.563-4.786,0.721-6.532,0.377-4.256
							C280.049,266.684,279.923,268.107,279.877,269.613z"/>
						<path style="opacity:0.46;fill:#5B173A;" d="M468.931,335.295c16.726-11.163,50.941-35.962,67.678-62.478
							c8.728-13.822,14.137-30.46,17.498-45.554c-3.58,11.919-9.117,25.82-17.742,38.305
							c-16.108,23.306-47.744,47.379-64.017,58.306C467.652,327.036,469.5,337.469,468.931,335.295z"/>
					</g>
				</g>
			</g>
			<rect x="355.707" y="476.504" style="fill:#827C91;" width="23.012" height="249.295"/>
			<rect x="650.07" y="476.5" style="fill:#827C91;" width="23.01" height="249.3"/>
			<rect x="762.25" y="476.5" style="fill:#827C91;" width="23.01" height="249.3"/>
			<polygon style="fill:#323966;" points="650.07,476.5 673.08,476.5 673.08,558.73 650.07,570.15 			"/>
			<polygon style="fill:#323966;" points="785.26,476.5 785.26,503.06 762.25,514.48 762.25,476.5 			"/>
			<polygon style="fill:#323966;" points="378.911,476.009 378.911,502.912 355.604,514.48 355.604,476.009 			"/>
			<g>
				<path style="fill:#323966;" d="M221.913,483.942h516.543v-20.946c0-5.598-4.538-10.136-10.136-10.136H232.049
					c-5.598,0-10.136,4.538-10.136,10.136V483.942z"/>
			</g>
			<g>
				<rect x="297.497" y="429.833" style="fill:#C4C4C9;" width="112.811" height="24.002"/>
				<rect x="358.436" y="429.561" style="fill:#E8EAEC;" width="52.17" height="24.547"/>
				<g>
					
						<line style="fill:none;stroke:#968EAB;stroke-width:1.7691;stroke-miterlimit:10;" x1="297.596" y1="434.251" x2="410.507" y2="434.251"/>
					
						<line style="fill:none;stroke:#968EAB;stroke-width:1.7691;stroke-miterlimit:10;" x1="297.596" y1="439.079" x2="410.507" y2="439.079"/>
					
						<line style="fill:none;stroke:#968EAB;stroke-width:1.7691;stroke-miterlimit:10;" x1="297.596" y1="443.906" x2="410.507" y2="443.906"/>
					
						<line style="fill:none;stroke:#968EAB;stroke-width:1.7691;stroke-miterlimit:10;" x1="297.596" y1="448.734" x2="410.507" y2="448.734"/>
				</g>
			</g>
			<g>
				<rect x="110.648" y="522.842" style="fill:#65354D;" width="158.391" height="202.921"/>
				<rect x="169.51" y="522.842" style="fill:#65354D;" width="168.392" height="202.921"/>
				<g>
					<rect x="180.283" y="537.704" style="fill:#FA7C50;" width="147.66" height="53.694"/>
					<rect x="180.283" y="600.712" style="fill:#FA7C50;" width="147.66" height="53.694"/>
					<rect x="180.283" y="663.719" style="fill:#FA7C50;" width="147.66" height="53.694"/>
				</g>
				<g>
					<path style="fill:#FFFFFF;" d="M279.96,567.428h-36.915c-1.582,0-2.876-1.294-2.876-2.876l0,0c0-1.582,1.294-2.876,2.876-2.876
						h36.915c1.582,0,2.876,1.294,2.876,2.876l0,0C282.836,566.133,281.542,567.428,279.96,567.428z"/>
					<path style="fill:#FFFFFF;" d="M281.398,629.991h-36.915c-1.582,0-2.876-1.294-2.876-2.876l0,0
						c0-1.582,1.294-2.877,2.876-2.877h36.915c1.582,0,2.876,1.294,2.876,2.877l0,0C284.274,628.697,282.98,629.991,281.398,629.991
						z"/>
					<path style="fill:#FFFFFF;" d="M281.398,692.555h-36.915c-1.582,0-2.876-1.294-2.876-2.876l0,0
						c0-1.582,1.294-2.877,2.876-2.877h36.915c1.582,0,2.876,1.294,2.876,2.877l0,0C284.274,691.261,282.98,692.555,281.398,692.555
						z"/>
				</g>
			</g>
			<g>
				<g>
					<path style="fill:#FFAC3D;" d="M471.486,419.636v35.295h-29.484v-35.295c0-1.553,1.266-2.819,2.819-2.819h23.846
						C470.22,416.817,471.486,418.082,471.486,419.636z"/>
					<g>
						<path style="fill:#F66438;" d="M442.365,448.891c-0.385-0.221-9.436-5.522-10.244-14.808c-0.308-3.54,1.032-5.734,2.21-6.951
							c3.24-3.346,8.623-3.153,9.226-3.121l-0.235,4.308c-1.093-0.051-4.311,0.172-5.899,1.823c-0.81,0.842-1.138,2.009-1.003,3.567
							c0.615,7.065,8.02,11.397,8.094,11.44L442.365,448.891z"/>
					</g>
					<path style="fill:#D04234;" d="M464.204,439.289h-8.45c-2.929,0-5.303-2.375-5.303-5.303l0,0c0-2.929,2.375-5.304,5.303-5.304
						h8.45c2.929,0,5.303,2.375,5.303,5.304l0,0C469.508,436.915,467.134,439.289,464.204,439.289z"/>
				</g>
				<path style="fill:#F66438;" d="M457.707,454.93h-15.706v-35.295c0-1.553,1.266-2.819,2.819-2.819h0.949
					c0.043,1.841,0.546,15.921,4.502,26.061C453.709,451.708,456.772,454.311,457.707,454.93z"/>
			</g>
			<g>
				
					<line style="fill:none;stroke:#968EAB;stroke-width:1.4382;stroke-miterlimit:10;" x1="688.66" y1="434.357" x2="767.764" y2="434.357"/>
				
					<line style="fill:none;stroke:#968EAB;stroke-width:1.4382;stroke-miterlimit:10;" x1="688.66" y1="438.911" x2="767.764" y2="438.911"/>
				
					<line style="fill:none;stroke:#968EAB;stroke-width:1.4382;stroke-miterlimit:10;" x1="688.66" y1="442.465" x2="767.764" y2="442.465"/>
				
					<line style="fill:none;stroke:#968EAB;stroke-width:1.4382;stroke-miterlimit:10;" x1="688.66" y1="447.02" x2="767.764" y2="447.02"/>
			</g>
			<g>
				<g>
					<g>
						<polygon style="fill:#FFFFFF;" points="347.317,430.24 366.254,389.49 384.951,429.761 						"/>
						<rect x="332.216" y="389.73" style="fill:#FFFFFF;" width="34.038" height="39.312"/>
						<polygon style="fill:#323966;" points="314.717,430.24 331.976,389.97 350.673,430.24 						"/>
					</g>
					<g>
						<g>
							<rect x="346.119" y="394.764" style="fill:#968EAB;" width="17.019" height="1.678"/>
						</g>
						<g>
							<rect x="347.557" y="398.12" style="fill:#968EAB;" width="17.019" height="1.678"/>
						</g>
						<g>
							<path style="fill:#968EAB;" d="M356.985,425.276l-9.124-21.51l19.862,0.077l9.798,20.855L356.985,425.276z M350.015,405.161
								l7.902,18.629l17.348-0.423l-8.43-18.068L350.015,405.161z"/>
						</g>
					</g>
				</g>
				<g>
					
						<line style="fill:none;stroke:#968EAB;stroke-width:1.4611;stroke-miterlimit:10;" x1="351.093" y1="408.247" x2="369.275" y2="408.247"/>
					
						<line style="fill:none;stroke:#968EAB;stroke-width:1.4611;stroke-miterlimit:10;" x1="352.67" y1="412.172" x2="370.852" y2="412.172"/>
					
						<line style="fill:none;stroke:#968EAB;stroke-width:1.4611;stroke-miterlimit:10;" x1="353.969" y1="416.098" x2="372.151" y2="416.098"/>
					
						<line style="fill:none;stroke:#968EAB;stroke-width:1.4611;stroke-miterlimit:10;" x1="356.102" y1="420.023" x2="374.284" y2="420.023"/>
				</g>
				<g>
					
						<line style="fill:none;stroke:#968EAB;stroke-width:1.4611;stroke-miterlimit:10;" x1="363.857" y1="404.921" x2="372.307" y2="423.708"/>
					
						<line style="fill:none;stroke:#968EAB;stroke-width:1.4611;stroke-miterlimit:10;" x1="358.823" y1="405.011" x2="367.273" y2="423.798"/>
					
						<line style="fill:none;stroke:#968EAB;stroke-width:1.4611;stroke-miterlimit:10;" x1="353.876" y1="404.654" x2="362.239" y2="424.158"/>
				</g>
			</g>
			<g>
				<g>
					
						<rect x="770.004" y="360.16" transform="matrix(0.9847 0.1743 -0.1743 0.9847 80.3515 -128.5919)" style="fill:#4257A4;" width="4.794" height="66.159"/>
					
						<rect x="773.127" y="358.882" transform="matrix(0.9847 0.1743 -0.1743 0.9847 76.1644 -129.7379)" style="fill:#4257A4;" width="7.431" height="19.896"/>
				</g>
				<g>
					<polygon style="fill:#65354D;" points="761.125,434.548 756.348,434.147 761.877,368.22 764.767,364.003 766.654,368.62 					
						"/>
				</g>
				<g>
					<polygon style="fill:#122F51;" points="754.486,437.917 749.78,438.833 737.137,373.893 738.769,369.048 741.843,372.977 					
						"/>
				</g>
				<g>
					<polygon style="fill:#F66438;" points="765.065,453.023 744.575,453.023 737.857,398.779 771.784,398.779 					"/>
					<polygon style="fill:#FFAC3D;" points="772.791,453.023 752.301,453.023 749.278,398.779 779.509,398.779 					"/>
				</g>
			</g>
			<g>
				<g>
					<path style="fill:#4257A4;" d="M269.333,496.2V523h-83.194c-5.81,0-10.773-3.711-12.629-8.894
						c-0.499-1.403-0.777-2.922-0.777-4.511c0-3.688,1.496-7.039,3.92-9.474c2.435-2.424,5.787-3.92,9.486-3.92H269.333z"/>
					<path style="fill:#31477D;" d="M237.987,514.105V523h-51.848c-5.81,0-10.773-3.711-12.629-8.894H237.987z"/>
					<path style="fill:#0E254A;" d="M300.777,496.195v26.807l-83.193,0c-7.399,0-13.404-6.005-13.404-13.404
						c0-3.692,1.501-7.047,3.922-9.482c2.435-2.42,5.79-3.922,9.482-3.922L300.777,496.195z"/>
					<path style="fill:#E8EAEC;" d="M300.777,500.791v17.187l-79.578,0c-4.749,0-8.594-3.845-8.594-8.594
						c0-2.374,0.965-4.519,2.512-6.081c1.563-1.548,3.707-2.512,6.081-2.512L300.777,500.791z"/>
				</g>
				<g>
					<path style="fill:#FFAC3D;" d="M271.143,442.926v26.807l-83.193,0c-7.399,0-13.404-6.005-13.404-13.404
						c0-3.692,1.501-7.047,3.922-9.482c2.435-2.42,5.79-3.922,9.482-3.922L271.143,442.926z"/>
					<path style="fill:#FFD533;" d="M239.534,451.874v-8.895h-51.848c-5.81,0-10.773,3.711-12.629,8.895H239.534z"/>
					<path style="fill:#FA7C50;" d="M300.777,442.926v26.807l-83.193,0c-7.399,0-13.404-6.005-13.404-13.404
						c0-3.692,1.501-7.047,3.922-9.482c2.435-2.42,5.79-3.922,9.482-3.922L300.777,442.926z"/>
					<path style="fill:#E8EAEC;" d="M300.777,447.521v17.187l-79.578,0c-4.749,0-8.594-3.845-8.594-8.594
						c0-2.374,0.965-4.518,2.512-6.081c1.563-1.548,3.707-2.512,6.081-2.512L300.777,447.521z"/>
				</g>
				<g>
					<path style="fill:#A1CF3A;" d="M275.978,469.887v26.812h-83.194c-7.398,0-13.394-6.007-13.394-13.406
						c0-2.273,0.568-4.418,1.565-6.297c0.626-1.171,1.426-2.25,2.354-3.189c2.435-2.424,5.787-3.92,9.474-3.92H275.978z"/>
					<path style="fill:#709D2B;" d="M263.106,469.887v7.109h-82.151c0.626-1.171,1.426-2.25,2.354-3.189
						c2.435-2.424,5.787-3.92,9.474-3.92H263.106z"/>
					<path style="fill:#709D2B;" d="M263.106,496.71v-7.109h-82.151c0.626,1.171,1.426,2.25,2.354,3.189
						c2.435,2.424,5.787,3.92,9.474,3.92H263.106z"/>
					<path style="fill:#4E8530;" d="M317.106,469.888v26.807l-83.193,0c-7.399,0-13.404-6.005-13.404-13.404
						c0-3.692,1.501-7.047,3.922-9.482c2.435-2.42,5.79-3.922,9.482-3.922L317.106,469.888z"/>
					<path style="fill:#E8EAEC;" d="M317.106,474.483v17.187l-79.578,0c-4.749,0-8.593-3.845-8.593-8.594
						c0-2.374,0.965-4.518,2.512-6.081c1.563-1.548,3.707-2.512,6.081-2.512L317.106,474.483z"/>
				</g>
			</g>
			<g>
				<g>
					<path style="fill:#53803A;" d="M189.301,452.23c-11.13,15.157-33.459,17.672-33.459,17.672s-4.283-22.058,6.847-37.215
						c11.13-15.157,33.459-17.672,33.459-17.672S200.431,437.074,189.301,452.23z"/>
					<path style="fill:#3D6A3A;" d="M142.564,443.167c10.203,10.056,9.646,27.165,9.646,27.165s-17.099,0.805-27.302-9.25
						c-10.203-10.056-9.646-27.165-9.646-27.165S132.361,433.111,142.564,443.167z"/>
					<path style="fill:#63B259;" d="M167.852,435.56c2.073,18.69-12.654,35.661-12.654,35.661s-18.088-13.331-20.161-32.021
						c-2.073-18.69,12.654-35.661,12.654-35.661S165.779,416.87,167.852,435.56z"/>
				</g>
				<g>
					<polygon style="fill:#65354D;" points="166.471,522.858 127.74,522.858 115.041,466.349 179.169,466.349 					"/>
					<polygon style="fill:#A0533B;" points="181.074,522.858 142.343,522.858 136.629,466.349 193.773,466.349 					"/>
				</g>
			</g>
		</g>
	</g>
</g>
<g>
	<path style="fill:#C96239;" d="M336.014,483.942h487.778v-20.946c0-5.598-4.538-10.136-10.136-10.136H346.15
		c-5.598,0-10.136,4.538-10.136,10.136V483.942z"/>
</g>
</svg>
